<?xml version="1.0" encoding="UTF-8"?>
<svg width="200px" height="200px" viewBox="0 0 200 200" version="1.1" xmlns="http://www.w3.org/2000/svg" xmlns:xlink="http://www.w3.org/1999/xlink">
    <title>Border</title>
    <g class="SortByAccessed" stroke="none" stroke-width="1" fill="none" fill-rule="evenodd">
        <rect class="Fill" x="0" y="-1" width="200" height="200" rx="30"></rect>
        <path d="M96.4940544,51.3075221 L129.112055,131.148598 L100.5,120.839379 L100.5,149.5 L91.5,149.5 L91.5,120.898196 L63.8695249,129.135309 L96.4940544,51.3075221 Z" class="Arrow" stroke="#000" fill="#000" transform="translate(96.500000, 100.000000) rotate(-23.000000) translate(-96.500000, -100.000000) "></path>
        <path d="M147.92,180 L159.467,200 L156.002,200 L144.455,180 L147.92,180 Z M102.5,180 L102.5,200 L97.5,200 L97.5,180 L102.5,180 Z M55.544,180 L43.997,200 L40.532,200 L52.079,180 L55.544,180 Z M180,144.455 L200,156.002 L200,159.467 L180,147.92 L180,144.455 Z M20,144.455 L20,147.92 L-1.13686838e-13,159.467 L-1.13686838e-13,156.002 L20,144.455 Z M180,97.499 L200,97.499 L200,102.499 L180,102.499 L180,97.499 Z M20,102.499 L-1.13686838e-13,102.499 L-1.13686838e-13,97.499 L20,97.499 L20,102.499 Z M-1.13686838e-13,40.533 L20,52.08 L20,55.544 L-1.13686838e-13,43.997 L-1.13686838e-13,40.533 Z M200,40.532 L200,43.997 L180,55.544 L180,52.079 L200,40.532 Z M43.997,0 L55.544,20 L52.08,20 L40.533,0 L43.997,0 Z M102.5,0 L102.5,20 L97.5,20 L97.5,0 L102.5,0 Z M159.467,0 L147.92,20 L144.455,20 L156.002,0 L159.467,0 Z" class="ClockTicks" fill="#000" fill-rule="nonzero"></path>
        <rect class="Border" stroke="#000" stroke-width="10" x="5" y="5" width="190" height="190" rx="30"></rect>
    </g>
</svg>
